<mxfile host="app.diagrams.net" modified="2024-02-18T07:52:41.421Z" agent="Mozilla/5.0 (Windows NT 10.0; Win64; x64) AppleWebKit/537.36 (KHTML, like Gecko) Chrome/121.0.0.0 Safari/537.36" etag="px6XKrb0jA3cUgV2M_FJ" version="23.1.5" type="github">
  <diagram name="Page-1" id="EYNK9CcC0-TPG7jP4S-k">
    <mxGraphModel dx="1050" dy="522" grid="1" gridSize="10" guides="1" tooltips="1" connect="1" arrows="1" fold="1" page="1" pageScale="1" pageWidth="850" pageHeight="1100" math="0" shadow="0">
      <root>
        <mxCell id="0" />
        <mxCell id="1" parent="0" />
        <mxCell id="EXyFGEwBNgROIyMvd99T-1" value="&lt;font style=&quot;font-size: 16px;&quot;&gt;&lt;b&gt;Authenticate&lt;/b&gt;&lt;/font&gt;" style="ellipse;whiteSpace=wrap;html=1;" vertex="1" parent="1">
          <mxGeometry x="298" y="140" width="255" height="80" as="geometry" />
        </mxCell>
        <mxCell id="EXyFGEwBNgROIyMvd99T-5" value="&lt;font style=&quot;font-size: 16px;&quot;&gt;&lt;b&gt;Authenticate&lt;/b&gt;&lt;/font&gt;" style="ellipse;whiteSpace=wrap;html=1;" vertex="1" parent="1">
          <mxGeometry x="298" y="260" width="255" height="80" as="geometry" />
        </mxCell>
      </root>
    </mxGraphModel>
  </diagram>
</mxfile>
